<?xml version="1.0" encoding="UTF-8"?>
<svg width="64px" height="42px" viewBox="0 0 64 42" version="1.1" xmlns="http://www.w3.org/2000/svg">
    <!-- Generator: sketchtool 61.2 (101010) - https://sketch.com -->
    <title>F4781A60-1C5C-490D-974E-9929594A1BC0@1.00x</title>
    <desc>Created with sketchtool.</desc>
    <g id="Swash-Onboarding-page" stroke="none" stroke-width="1" fill="none" fill-rule="evenodd">
        <g id="Onboarding-03B---Choosed-import-settings" transform="translate(-872.000000, -383.000000)" fill="#181F21" fill-rule="nonzero">
            <g id="Group-4" transform="translate(873.000000, 384.000000)">
                <g id="Group-6">
                    <g id="3BoxCloud.04c538e2">
                        <rect id="Rectangle" x="12.5606061" y="31.6363636" width="37.4545455" height="7.27272727"></rect>
                        <g id="Group-7" stroke="#181F21" stroke-width="0.5">
                            <g id="noun_Cloud_926941" transform="translate(31.015152, 20.000000) scale(-1, 1) translate(-31.015152, -20.000000) translate(0.015152, 0.000000)">
                                <path d="M15.9490947,38.8484847 L28.3879598,38.8484847 C26.1271147,38.6560967 23.9851137,38.0115622 22.0407367,36.999288 C20.264661,37.9993236 18.1884338,38.6539949 15.9490947,38.8484847 Z M10.5209844,38.8471535 C10.0843295,38.8188095 9.65379796,38.7784945 9.23322785,38.7213913 C9.6550444,38.7965611 10.0849916,38.8392785 10.5209844,38.8471535 Z M1.85013103,32.2096656 C1.3394192,30.7063867 1.09090909,29.1156724 1.09090909,27.6363636 C1.09090909,23.6768099 3.52748135,20.1940629 7.21291644,18.1832307 C3.61353049,19.693064 1.03743316,23.4811175 1.03743316,27.8671873 C1.03743316,29.3996504 1.32857943,30.8703545 1.85013103,32.2096656 Z M11.794726,16.5994245 L11.822968,16.4295593 C13.3997067,6.94607585 20.7905672,0.181818182 29.6275691,0.181818182 C35.7815373,0.181818182 41.3920142,3.48147224 44.7731967,9.09382549 L44.840456,9.20546778 L44.9677833,9.17761953 C45.8034593,8.99484604 46.6794582,8.91489084 47.6722513,8.91489084 C55.5567865,8.91489084 62,15.8992324 62,24.466146 C62,33.1060424 55.7339142,39.8181818 47.6722513,39.8181818 L10.6684492,39.8181818 C4.97885022,39.8181818 0.181818182,34.3669053 0.181818182,27.8671873 C0.181818182,21.6104539 4.8779928,16.5151515 10.6684492,16.5151515 C10.6702236,16.5151515 10.6702236,16.5151515 10.6719975,16.5151515 C11.117136,16.51515 11.3210966,16.5257707 11.6110106,16.5786108 L11.7592842,16.6056353 C11.7710924,16.6035521 11.7829064,16.6014818 11.794726,16.5994245 Z M46.3664353,38.8484847 C43.7319229,38.5958058 41.3111098,37.5647262 39.3132971,35.9755626 C36.9436869,37.5774975 34.1971274,38.5975615 31.2484039,38.8484847 L46.3664353,38.8484847 Z M36.7174447,13.0909091 L23.3663144,13.0909091 C21.9550708,13.0909091 20.8110319,14.2349481 20.8110319,15.6461916 L20.8110319,28.9336609 C20.8110319,30.3449045 21.9550708,31.4889435 23.3663144,31.4889435 L36.7174447,31.4889435 C38.1286884,31.4889435 39.2727273,30.3449045 39.2727273,28.9336609 L39.2727273,15.6461916 C39.2727273,14.2349481 38.1286884,13.0909091 36.7174447,13.0909091 Z M29.9503668,16.13537 C30.4942893,16.13537 31.0027925,16.2104415 31.4758917,16.3605868 C31.948991,16.510732 32.3682583,16.7345301 32.7337062,17.0319877 C33.0991541,17.3294453 33.4036894,17.7005535 33.6473214,18.1453234 C33.8909533,18.5900933 34.0552607,19.1070952 34.1402486,19.6963445 L33.0354116,19.8918157 C32.9334262,19.9088133 32.837108,19.9173119 32.7464543,19.9173119 C32.5538151,19.9173119 32.3980063,19.8705693 32.2790233,19.7770826 C32.1600402,19.683596 32.0665549,19.5292036 31.9985646,19.313901 C31.8682499,18.9002933 31.638786,18.5617633 31.3101662,18.2983009 C30.9815464,18.0348384 30.5679449,17.9031092 30.0693493,17.9031092 C29.5197609,17.9031092 29.0863293,18.0518357 28.7690412,18.3492933 C28.4517531,18.6467509 28.2931114,19.0872648 28.2931114,19.6708484 C28.2931114,19.9428096 28.3327718,20.1921036 28.4120939,20.418738 C28.4914159,20.6453724 28.6316438,20.8394251 28.8327818,21.000902 C29.0339197,21.1623791 29.3044604,21.2884425 29.644412,21.3790963 C29.9843636,21.46975 30.4121295,21.5179091 30.9277227,21.5235749 L30.9277227,23.0193542 C30.3044781,23.0193542 29.8073065,23.0675133 29.4361927,23.1638329 C29.065079,23.2601525 28.7803738,23.3932982 28.5820687,23.563274 C28.3837637,23.7332497 28.2534509,23.938634 28.1911264,24.1794331 C28.128802,24.4202321 28.0976402,24.6879399 28.0976402,24.9825646 C28.0976402,25.2148648 28.14155,25.4457451 28.2293708,25.6752124 C28.3171916,25.9046796 28.4503373,26.1128968 28.6288119,26.2998702 C28.8072864,26.4868435 29.029668,26.638403 29.2959634,26.7545531 C29.5622588,26.8707032 29.8738764,26.9287774 30.2308255,26.9287774 C30.5481136,26.9287774 30.8214871,26.8820347 31.0509545,26.7885481 C31.2804218,26.6950614 31.4801403,26.5732473 31.6501161,26.423102 C31.8200918,26.2729568 31.9659855,26.1015671 32.0878015,25.9089279 C32.2096175,25.7162887 32.3215164,25.5208195 32.4235019,25.3225144 C32.4858264,25.2035314 32.5750623,25.112879 32.6912124,25.0505545 C32.8073625,24.9882301 32.9390918,24.9570683 33.0864041,24.9570683 C33.250714,24.9570683 33.4121886,24.991063 33.5708326,25.0590533 L34.497196,25.4414969 C34.3272202,25.9684217 34.1232523,26.4330152 33.8852863,26.8352912 C33.6473201,27.2375672 33.3583657,27.5775136 33.0184142,27.8551407 C32.6784626,28.1327678 32.2790255,28.3424015 31.8200909,28.4840479 C31.3611564,28.6256944 30.8229079,28.6965165 30.2053292,28.6965165 C29.6387433,28.6965165 29.1019112,28.6143628 28.5948169,28.4500529 C28.0877225,28.285743 27.6415428,28.0435312 27.2562644,27.7234102 C26.870986,27.4032891 26.5650342,27.0081014 26.3383998,26.5378351 C26.1117654,26.0675688 25.9984499,25.5264874 25.9984499,24.9145746 C25.9984499,24.1950105 26.1797548,23.5972713 26.5423697,23.1213392 C26.9049847,22.645407 27.4545648,22.2912962 28.1911264,22.058996 C27.88517,21.9570105 27.6117965,21.8295305 27.3709974,21.6765524 C27.1301984,21.5235742 26.9262306,21.3366036 26.7590877,21.1156352 C26.5919449,20.8946666 26.464465,20.6354575 26.3766442,20.3379999 C26.2888233,20.0405423 26.2449136,19.6963465 26.2449136,19.3054023 C26.2449136,18.8577994 26.3313166,18.441365 26.5041253,18.0560866 C26.676934,17.6708082 26.9248117,17.3351111 27.2477656,17.0489852 C27.5707196,16.7628593 27.9602415,16.5390612 28.4163432,16.3775843 C28.8724449,16.2161073 29.383781,16.13537 29.9503668,16.13537 Z"
                                      id="Combined-Shape"></path>
                            </g>
                        </g>
                    </g>
                </g>
            </g>
        </g>
    </g>
</svg>