<?xml version="1.0" encoding="UTF-8"?>
<svg width="34px" height="40px" viewBox="0 0 34 40" version="1.1" xmlns="http://www.w3.org/2000/svg" xmlns:xlink="http://www.w3.org/1999/xlink">
    <!-- Generator: sketchtool 61.2 (101010) - https://sketch.com -->
    <title>BB3B942B-B124-4DF2-B180-14B9B0D17D9F@1.00x</title>
    <desc>Created with sketchtool.</desc>
    <g id="Swash-Onboarding-page" stroke="none" stroke-width="1" fill="none" fill-rule="evenodd">
        <g id="Onboarding-03B---Choosed-import-settings" transform="translate(-523.000000, -384.000000)" fill="#5D99F4" fill-rule="nonzero">
            <g id="Group" transform="translate(504.000000, 384.000000)">
                <g id="file-css" transform="translate(19.000000, 0.000000)">
                    <path d="M32.9166667,11.6666667 L25.8333333,11.6666667 C23.5321469,11.6666667 21.6666667,9.80118646 21.6666667,7.5 L21.6666667,0.418333333 C21.6671099,0.307537973 21.6234069,0.201128504 21.5452187,0.122627506 C21.4670304,0.0441265089 21.3607962,0 21.25,0 L3.33333333,0 C1.49238417,0 0,1.49238417 0,3.33333333 L0,36.6666667 C0,38.5076158 1.49238417,40 3.33333333,40 L30,40 C31.8409492,40 33.3333367,38.5076158 33.3333367,36.6666667 L33.3333367,12.085 C33.3337765,11.9742046 33.2900736,11.8677952 33.2118853,11.7892942 C33.1336971,11.7107932 33.0274629,11.6666658 32.9166667,11.6666667 Z" id="Shape"></path>
                    <path d="M25.8333333,10.0000007 L32.3333333,10.0000007 C32.5020907,10.0003019 32.6543654,9.89878094 32.7189869,9.74288607 C32.7836085,9.5869912 32.747814,9.40751183 32.6283333,9.28833333 L24.045,0.713333333 C23.9268983,0.59487804 23.7494068,0.558532138 23.5942501,0.621030833 C23.4390935,0.683529528 23.3363524,0.832755998 23.3333333,1 L23.3333333,7.5 C23.3333333,8.88071187 24.4526215,10.0000007 25.8333333,10.0000007 Z" id="Path"></path>
                </g>
            </g>
        </g>
    </g>
</svg>