<?xml version="1.0" ?><svg viewBox="0 0 24 24" xmlns="http://www.w3.org/2000/svg"><title/><path d="M18,21H6a3,3,0,0,1-3-3V6A3,3,0,0,1,6,3h5a1,1,0,0,1,0,2H6A1,1,0,0,0,5,6V18a1,1,0,0,0,1,1H18a1,1,0,0,0,1-1V13a1,1,0,0,1,2,0v5A3,3,0,0,1,18,21Z" fill="#464646"/><path d="M20.66,3.34a1,1,0,0,0-1.42,0L13,9.64l-1.29-1.3a1,1,0,0,0-1.09-.21,1,1,0,0,0-.62.92v4a1,1,0,0,0,.08.38,1,1,0,0,0,.54.54,1,1,0,0,0,.38.08h4a1,1,0,0,0,.92-.62,1,1,0,0,0-.21-1.09l-1.3-1.29,6.3-6.29A1,1,0,0,0,20.66,3.34Z" fill="#464646"/></svg>