<?xml version="1.0" encoding="UTF-8"?>
<svg width="24px" height="24px" viewBox="0 0 24 24" version="1.1" xmlns="http://www.w3.org/2000/svg">
    <!-- Generator: sketchtool 57.1 (101010) - https://sketch.com -->
    <title>11A6B310-9A93-4173-896D-CB6B8AAD88C5@1.00x</title>
    <desc>Created with sketchtool.</desc>
    <g id="Swash-Views" stroke="none" stroke-width="1" fill="none" fill-rule="evenodd" stroke-linecap="round" stroke-linejoin="round">
        <g id="Data-view" transform="translate(-432.000000, -432.000000)" stroke="#323232" stroke-width="1.5">
            <g id="network-navigation" transform="translate(432.000000, 432.000000)">
                <path d="M13.588,23.141 C13.0617982,23.2137606 12.5312085,23.2500015 12,23.2500015 C7.30002852,23.2524452 3.09319509,20.3346384 1.44870476,15.9317542 C-0.195785575,11.52887 1.06822206,6.56768777 4.61900326,3.48845235 C8.16978446,0.409216931 13.2599221,-0.139912024 17.3857425,2.11116422 C21.5115628,4.36224047 23.8046067,8.93968453 23.137,13.592"
                      id="Path"></path>
                <path d="M9.289,22.921 C7.767,20.689 6.749,16.633 6.749,12 C6.749,7.367 7.767,3.312 9.289,1.079" id="Path"></path>
                <path d="M0.774,11.25 L11.249,11.25" id="Path"></path>
                <path d="M16.499,11.25 L23.249,11.25" id="Path"></path>
                <path d="M2.999,5.25 L21,5.25" id="Path"></path>
                <path d="M2.047,17.25 L10.499,17.25" id="Path"></path>
                <path d="M14.71,1.079 C16.058,3.057 17.01,6.465 17.21,10.438 C17.224,10.71 17.2343333,10.981 17.241,11.251" id="Path"></path>
                <path d="M13.256,13.992 L17.364,22.965 C17.4669675,23.1561332 17.6748935,23.2664624 17.8908919,23.2445781 C18.1068903,23.2226937 18.2884616,23.0729018 18.351,22.865 L19.551,19.55 L22.866,18.35 C23.0739018,18.2874616 23.2236937,18.1058903 23.2455781,17.8898919 C23.2674624,17.6738935 23.1571332,17.4659675 22.966,17.363 L13.993,13.255 C13.7821511,13.1665158 13.5387275,13.2143492 13.3770384,13.3760384 C13.2153492,13.5377275 13.1675158,13.7811511 13.256,13.992 Z"
                      id="Path"></path>
            </g>
        </g>
    </g>
</svg>