<?xml version="1.0" encoding="UTF-8"?>
<svg width="56px" height="56px" viewBox="0 0 56 56" version="1.1" xmlns="http://www.w3.org/2000/svg" xmlns:xlink="http://www.w3.org/1999/xlink">
    <!-- Generator: sketchtool 61.2 (101010) - https://sketch.com -->
    <title>8E605D20-190B-44B2-8D41-A041293036D4@1.00x</title>
    <desc>Created with sketchtool.</desc>
    <g id="Swash-Onboarding-page" stroke="none" stroke-width="1" fill="none" fill-rule="evenodd">
        <g id="Onboarding-01---Welcome" transform="translate(-712.000000, -329.000000)" fill-rule="nonzero">
            <g id="Swash_Beta_Flag" transform="translate(712.000000, 329.000000)">
                <path d="M24,8 C41.736089,8 48,14.2933506 48,32 C48,49.6397387 41.6317017,56 24,56 C6.42020758,56 -1.77635684e-14,49.5581336 -1.77635684e-14,32 C-1.77635684e-14,14.3746312 6.31549835,8 24,8 Z M23.891397,17.3134328 C21.8545139,17.3134328 20.1441481,18.7114195 19.6673568,20.6002865 C19.6320907,20.5967932 19.5963235,20.5950047 19.5601386,20.5950047 C14.7991839,20.5950047 12.1791045,22.8032974 12.1791045,26.9848877 C12.1791045,31.1877299 14.8303003,33.3075945 19.6065687,33.1010391 L19.6065687,33.1010391 L19.6287869,33.099307 C20.0443186,35.0721806 21.7949037,36.55319 23.891397,36.55319 C25.9864681,36.55319 27.7361001,35.0741894 28.1531596,33.1033216 L28.153,33.103 L28.2767615,33.1042689 C31.7580288,33.1636906 33.3206756,34.401805 33.4005093,36.9786768 L33.4037415,37.1905492 C33.4037415,39.9528536 31.8045668,41.257712 28.1137593,41.2857883 C27.6348586,39.4001402 25.9260252,38.0052471 23.891397,38.0052471 C21.8564061,38.0052471 20.147326,39.4006378 19.6687786,41.2867973 L19.6687786,41.2867973 L12.1791045,41.2867644 L12.1791045,43.4360181 L19.6687786,43.4360398 C20.147326,45.3221994 21.8564061,46.71759 23.891397,46.71759 C25.9267509,46.71759 27.6360776,45.3217017 28.1142713,43.4350308 L28.1142713,43.4350308 L27.9890323,43.4360181 C32.8619759,43.4360181 35.5529952,41.2917563 35.5529952,37.1905492 C35.5529952,33.1111929 32.8903981,30.9705063 28.0676268,30.9539205 C27.5325855,29.1537352 25.865312,27.8408471 23.891397,27.8408471 C21.9134281,27.8408471 20.2433615,29.1591335 19.7134143,30.9635805 C19.6484334,30.9542928 19.5816718,30.9508532 19.5137085,30.9537923 C15.8814338,31.1108744 14.3283582,29.8690536 14.3283582,26.9848877 C14.3283582,24.0794699 15.9125503,22.7442585 19.5601386,22.7442585 L19.5601386,22.7442585 L19.667447,22.738963 C20.1441481,24.627789 21.8545139,26.0257757 23.891397,26.0257757 C25.9116732,26.0257757 27.6107346,24.650492 28.1034417,22.7850642 L28.1034417,22.7850642 L35.5529952,22.7847436 L35.5529952,20.6354898 L28.1240761,20.6354538 C27.6598538,18.7288181 25.9409159,17.3134328 23.891397,17.3134328 Z M23.891397,40.1545009 C25.110244,40.1545009 26.0983147,41.1425716 26.0983147,42.3614186 C26.0983147,43.5802656 25.110244,44.5683363 23.891397,44.5683363 C22.6725501,44.5683363 21.6844793,43.5802656 21.6844793,42.3614186 C21.6844793,41.1425716 22.6725501,40.1545009 23.891397,40.1545009 Z M23.891397,29.9901009 C25.110244,29.9901009 26.0983147,30.9781716 26.0983147,32.1970186 C26.0983147,33.4158655 25.110244,34.4039363 23.891397,34.4039363 C22.6725501,34.4039363 21.6844793,33.4158655 21.6844793,32.1970186 C21.6844793,30.9781716 22.6725501,29.9901009 23.891397,29.9901009 Z M23.891397,19.4626866 C25.110244,19.4626866 26.0983147,20.4507573 26.0983147,21.6696043 C26.0983147,22.8884513 25.110244,23.876522 23.891397,23.876522 C22.6725501,23.876522 21.6844793,22.8884513 21.6844793,21.6696043 C21.6844793,20.4507573 22.6725501,19.4626866 23.891397,19.4626866 Z" id="Solid-green-mark-Copy" fill="#2AC437"></path>
                <g id="Group-2" transform="translate(24.000000, 0.000000)">
                    <g id="Group">
                        <rect id="Rectangle" fill="#FF5C00" x="0" y="0" width="32" height="16" rx="3"></rect>
                        <path d="M7.93066679,11 C8.99466679,11 9.69066679,10.4 9.69066679,9.4 C9.69066679,8.672 9.28266679,8.224 8.61066679,8.016 C9.13066679,7.84 9.49066679,7.424 9.49066679,6.784 C9.49066679,5.824 8.74666679,5.32 7.77866679,5.32 L5.07466679,5.32 L5.07466679,11 L7.93066679,11 Z M7.50666679,7.608 L6.19466679,7.608 L6.19466679,6.184 L7.51466679,6.184 C8.09866679,6.184 8.40266679,6.416 8.40266679,6.872 C8.40266679,7.328 8.09066679,7.608 7.50666679,7.608 Z M7.53066679,10.136 L6.19466679,10.136 L6.19466679,8.48 L7.53066679,8.48 C8.21866679,8.48 8.57066679,8.808 8.57066679,9.312 C8.57066679,9.824 8.22666679,10.136 7.53066679,10.136 Z M15.2773334,11 L15.2773334,10.056 L12.3173334,10.056 L12.3173334,8.536 L15.0053334,8.536 L15.0053334,7.592 L12.3173334,7.592 L12.3173334,6.264 L15.1893334,6.264 L15.1893334,5.32 L11.1973334,5.32 L11.1973334,11 L15.2773334,11 Z M19.312,11 L19.312,6.28 L20.984,6.28 L20.984,5.32 L16.52,5.32 L16.52,6.28 L18.192,6.28 L18.192,11 L19.312,11 Z M22.3466666,11 L22.7386666,9.864 L25.2106666,9.864 L25.5946666,11 L26.7546666,11 L24.7226666,5.32 L23.2506666,5.32 L21.2186666,11 L22.3466666,11 Z M24.8906666,8.936 L23.0586666,8.936 L23.2746666,8.296 C23.5226666,7.576 23.7786666,6.848 23.9706666,6.184 C24.1626666,6.848 24.4186666,7.56 24.6666666,8.28 L24.8906666,8.936 Z" id="BETA" fill="#FFFFFF"></path>
                    </g>
                </g>
            </g>
        </g>
    </g>
</svg>