<svg width="32" height="32" xmlns="http://www.w3.org/2000/svg">

 <g>
  <title>background</title>
  <rect fill="none" id="canvas_background" height="402" width="582" y="-1" x="-1"/>
 </g>
 <g>
  <title>Layer 1</title>
  <path id="svg_2" fill="#3172b2" d="m16,0c-8.837,0 -16,7.163 -16,16c0,8.836 7.163,16 16,16s16,-7.164 16,-16c0,-8.837 -7.163,-16 -16,-16z"/>
  <polygon id="svg_4" points="6.518,21.815 11.707,15.291 6.518,12.119   " fill="#FFFFFF"/>
  <polygon id="svg_5" points="19.5,15.746 15.989,17.908 12.472,15.758 7.11,22.5 24.867,22.5   " fill="#FFFFFF"/>
  <polygon id="svg_6" points="15.988,16.864 25.482,11.017 25.482,9.5 6.518,9.5 6.518,11.076   " fill="#FFFFFF"/>
  <polygon id="svg_7" points="20.263,15.276 25.482,21.843 25.482,12.062   " fill="#FFFFFF"/>
 </g>
</svg>