<?xml version="1.0" ?><!DOCTYPE svg  PUBLIC '-//W3C//DTD SVG 1.0//EN'  'http://www.w3.org/TR/2001/REC-SVG-20010904/DTD/svg10.dtd'><svg enable-background="new 0 0 32 32" height="32px" id="Layer_1" version="1.0" viewBox="0 0 32 32" width="32px" xml:space="preserve" xmlns="http://www.w3.org/2000/svg" xmlns:xlink="http://www.w3.org/1999/xlink"><g><circle clip-rule="evenodd" cx="16" cy="16" fill="#55ACEE" fill-rule="evenodd" r="16"/><path d="M26.013,9.896c-0.737,0.323-1.527,0.538-2.359,0.636c0.85-0.498,1.5-1.289,1.807-2.232   c-0.793,0.462-1.672,0.798-2.608,0.979c-0.748-0.784-1.816-1.275-2.996-1.275c-2.269,0-4.105,1.807-4.105,4.039   c0,0.315,0.036,0.625,0.104,0.923c-3.412-0.172-6.436-1.78-8.461-4.222c-0.354,0.597-0.559,1.29-0.559,2.031   c0,1.4,0.728,2.636,1.828,3.363c-0.672-0.023-1.306-0.204-1.858-0.507c-0.001,0.017-0.001,0.033-0.001,0.051   c0,1.958,1.415,3.591,3.293,3.963c-0.343,0.09-0.706,0.141-1.082,0.141c-0.264,0-0.52-0.024-0.771-0.071   c0.521,1.603,2.038,2.771,3.834,2.806c-1.402,1.082-3.174,1.73-5.099,1.73c-0.33,0-0.659-0.019-0.979-0.058   c1.816,1.146,3.976,1.814,6.295,1.814c7.552,0,11.682-6.156,11.682-11.495c0-0.173-0.006-0.351-0.014-0.521   C24.766,11.417,25.462,10.706,26.013,9.896z" fill="#FFFFFF"/></g><g/><g/><g/><g/><g/><g/></svg>